<?xml version="1.0" standalone="no"?>
<!DOCTYPE svg PUBLIC "-//W3C//DTD SVG 20010904//EN"
 "http://www.w3.org/TR/2001/REC-SVG-20010904/DTD/svg10.dtd">
<svg version="1.0" xmlns="http://www.w3.org/2000/svg"
 width="246.000000pt" height="246.000000pt" viewBox="0 0 246.000000 246.000000"
 preserveAspectRatio="xMidYMid meet">
<metadata>
Created by potrace 1.14, written by Peter Selinger 2001-2017
</metadata>
<g transform="translate(0.000000,246.000000) scale(0.100000,-0.100000)"
fill="#000000" stroke="none">
<path d="M1033 2365 c-465 -84 -831 -451 -918 -920 -25 -133 -16 -366 19 -495
37 -133 130 -315 216 -421 193 -240 482 -394 778 -417 487 -37 910 197 1122
623 84 169 110 272 117 460 8 222 -27 386 -120 570 -101 200 -301 397 -512
503 -83 41 -235 88 -328 101 -103 14 -284 12 -374 -4z m343 -136 c308 -43 586
-236 733 -511 90 -167 115 -271 115 -473 0 -165 -8 -215 -54 -342 -113 -308
-357 -530 -685 -625 -70 -20 -102 -23 -250 -23 -147 0 -181 3 -249 23 -364
105 -619 363 -718 724 -30 110 -33 365 -5 468 58 210 146 361 293 500 221 208
517 301 820 259z"/>
<path d="M1232 1847 c-44 -46 -14 -127 45 -127 32 0 73 43 73 75 0 32 -41 75
-73 75 -13 0 -33 -10 -45 -23z"/>
<path d="M1145 1625 c-39 -38 -29 -82 25 -110 l30 -16 0 -424 0 -424 22 -15
c34 -24 73 -20 98 11 20 26 21 32 18 496 l-3 469 -24 19 c-17 14 -39 19 -83
19 -49 0 -63 -4 -83 -25z"/>
</g>
</svg>
