<svg data-v-6805eed4="" version="1.0" xmlns="http://www.w3.org/2000/svg" xmlns:xlink="http://www.w3.org/1999/xlink" width="100%" height="100%" viewBox="0 0 340.000000 250.000000" preserveAspectRatio="xMidYMid meet" color-interpolation-filters="sRGB" style="margin: auto;"> <rect data-v-6805eed4="" x="0" y="0" width="100%" height="100%" fill="#ffffff" fill-opacity="0" class="background"></rect> <rect data-v-6805eed4="" x="0" y="0" width="100%" height="100%" fill="url(#watermark)" fill-opacity="1" class="watermarklayer"></rect> <g data-v-6805eed4="" fill="#022244" class="icon-text-wrapper icon-svg-group iconsvg" transform="translate(81.63000512123108,70.17210388183594)"><g class="iconsvg-imagesvg" transform="matrix(0.6718929899958536,0,0,0.6718929899958536,68.21320413577772,9.843210300124394)" opacity="1"><g><rect fill="#022244" fill-opacity="0" stroke-width="2" x="0" y="0" width="60" height="60" class="image-rect"></rect> <svg filter="url(#colors6203537525)" x="0" y="0" width="60" height="60" filtersec="colorsf4016646403" class="image-svg-svg primary" style="overflow: visible;"><svg xmlns="http://www.w3.org/2000/svg" data-name="Layer 1" viewBox="1.1570096015930176 1.1570000648498535 87.68599700927734 87.68599700927734" x="0px" y="0px"><path d="M45,1.157A43.843,43.843,0,1,0,88.843,45,43.893,43.893,0,0,0,45,1.157Zm0,82.205A38.362,38.362,0,1,1,83.362,45,38.405,38.405,0,0,1,45,83.362ZM48.957,32.07V66.365a2.741,2.741,0,0,1-5.481,0V34.81h-.135a2.74,2.74,0,0,1,0-5.48h2.875A2.74,2.74,0,0,1,48.957,32.07Zm.442-8.435v.343a2.741,2.741,0,0,1-5.481,0v-.343a2.741,2.741,0,0,1,5.481,0Z"></path></svg></svg> <defs><filter id="colors6203537525"><feColorMatrix type="matrix" values="0 0 0 0 0.0078125  0 0 0 0 0.1328125  0 0 0 0 0.265625  0 0 0 1 0" class="icon-fecolormatrix"></feColorMatrix></filter> <filter id="colorsf4016646403"><feColorMatrix type="matrix" values="0 0 0 0 0.99609375  0 0 0 0 0.99609375  0 0 0 0 0.99609375  0 0 0 1 0" class="icon-fecolormatrix"></feColorMatrix></filter> <filter id="colorsb5291237232"><feColorMatrix type="matrix" values="0 0 0 0 0  0 0 0 0 0  0 0 0 0 0  0 0 0 1 0" class="icon-fecolormatrix"></feColorMatrix></filter></defs></g></g> <g transform="translate(0,67)"><g data-gra="path-name" fill-rule="" class="tp-name iconsvg-namesvg" transform="matrix(0.01,0,0,0.01,87.48629492998123,14.310451812744141)" opacity="1"><g transform="scale(1)"><g><path d="M7.2-28.69L7.2-24.31 2.35-24.31 2.35-28.69 7.2-28.69ZM7.2-20.17L7.2 0 2.35 0 2.35-20.17 7.2-20.17ZM34.19-11.19L34.19 0 29.34 0 29.34-11.19Q29.34-12.14 29.02-12.9 28.69-13.66 28.13-14.2 27.57-14.74 26.82-15.03 26.06-15.32 25.18-15.32L25.18-15.32 16.7-15.32 16.7 0 11.85 0 11.85-17.76Q11.85-18.26 12.03-18.7 12.22-19.14 12.55-19.47 12.89-19.79 13.34-19.98 13.79-20.17 14.29-20.17L14.29-20.17 25.22-20.17Q26.14-20.17 27.15-19.96 28.17-19.76 29.17-19.3 30.16-18.84 31.07-18.14 31.97-17.44 32.67-16.44 33.37-15.45 33.78-14.14 34.19-12.83 34.19-11.19L34.19-11.19ZM56.3-20.17L56.3-15.32 45.33-15.32 45.33-20.17 56.3-20.17ZM56.3-28.91L56.3-24.06 45.37-24.06Q44.38-24.06 43.88-23.57 43.37-23.08 43.37-22.12L43.37-22.12 43.37 0 38.52 0 38.52-22.12Q38.52-23.37 38.84-24.36 39.16-25.35 39.69-26.11 40.22-26.86 40.91-27.39 41.6-27.93 42.36-28.26 43.11-28.6 43.88-28.76 44.64-28.91 45.33-28.91L45.33-28.91 56.3-28.91ZM81.33-13.38L81.33-6.81Q81.33-5.56 81.02-4.56 80.7-3.56 80.18-2.81 79.66-2.05 78.97-1.52 78.28-0.99 77.52-0.65 76.76-0.32 75.99-0.16 75.22 0 74.53 0L74.53 0 65.78 0Q64.77 0 63.58-0.35 62.38-0.71 61.36-1.52 60.35-2.33 59.67-3.63 58.99-4.92 58.99-6.81L58.99-6.81 58.99-13.38Q58.99-15.24 59.67-16.54 60.35-17.83 61.36-18.65 62.38-19.46 63.58-19.81 64.77-20.17 65.78-20.17L65.78-20.17 74.53-20.17Q76.39-20.17 77.7-19.49 79-18.82 79.81-17.81 80.61-16.79 80.97-15.6 81.33-14.4 81.33-13.38L81.33-13.38ZM76.48-6.81L76.48-13.34Q76.48-14.35 75.98-14.83 75.48-15.32 74.53-15.32L74.53-15.32 65.81-15.32Q64.84-15.32 64.34-14.82 63.84-14.33 63.84-13.38L63.84-13.38 63.84-6.81Q63.84-5.86 64.34-5.35 64.84-4.85 65.81-4.85L65.81-4.85 74.53-4.85Q75.51-4.85 76-5.35 76.48-5.86 76.48-6.81L76.48-6.81ZM104.99-4.85L104.99 0 91.84 0Q90.83 0 89.64-0.35 88.44-0.71 87.43-1.52 86.41-2.33 85.73-3.63 85.05-4.92 85.05-6.81L85.05-6.81 85.05-13.38Q85.05-14.07 85.21-14.83 85.36-15.6 85.7-16.35 86.04-17.11 86.57-17.8 87.1-18.49 87.85-19.01 88.61-19.53 89.6-19.85 90.59-20.17 91.84-20.17L91.84-20.17 104.99-20.17 104.99-15.32 91.84-15.32Q90.89-15.32 90.39-14.83 89.9-14.35 89.9-13.34L89.9-13.34 89.9-6.81Q89.9-5.86 90.4-5.35 90.9-4.85 91.87-4.85L91.87-4.85 104.99-4.85ZM131.42-13.38L131.42 0 126.57 0 126.57-13.38Q126.57-14.33 126.09-14.82 125.6-15.32 124.63-15.32L124.63-15.32 115.88-15.32 115.88-20.17 124.63-20.17Q125.32-20.17 126.09-20.01 126.85-19.85 127.61-19.51 128.36-19.18 129.05-18.65 129.74-18.11 130.27-17.36 130.79-16.6 131.11-15.61 131.42-14.63 131.42-13.38L131.42-13.38ZM113.92-28.69L113.92 0 109.07 0 109.07-28.69 113.92-28.69ZM156.68-13.49L156.68-6.68Q156.68-5.67 156.33-4.51 155.97-3.34 155.18-2.34 154.39-1.34 153.11-0.67 151.83 0 150 0L150 0 141.25 0Q140.25 0 139.08-0.35 137.91-0.71 136.92-1.5 135.92-2.29 135.25-3.57 134.58-4.85 134.58-6.68L134.58-6.68Q134.58-7.69 134.93-8.86 135.28-10.04 136.08-11.03 136.87-12.03 138.15-12.7 139.43-13.38 141.25-13.38L141.25-13.38 150-13.38 150-8.75 141.25-8.75Q140.27-8.75 139.72-8.14 139.18-7.54 139.18-6.64L139.18-6.64Q139.18-5.69 139.81-5.16 140.43-4.63 141.29-4.63L141.29-4.63 150-4.63Q150.99-4.63 151.53-5.22 152.07-5.82 152.07-6.72L152.07-6.72 152.07-13.49Q152.07-14.44 151.49-15 150.9-15.56 150-15.56L150-15.56 139.35-15.56 139.35-20.17 150-20.17Q151.01-20.17 152.18-19.81 153.34-19.46 154.34-18.66 155.34-17.87 156.01-16.59 156.68-15.32 156.68-13.49L156.68-13.49ZM179.09-20.17L179.09-15.32 170.62-15.32 170.62 0 165.71 0 165.71-15.32 159.41-15.32 159.41-20.17 165.71-20.17 165.71-26.75 170.62-26.75 170.62-20.17 179.09-20.17Z" transform="translate(-2.3499999046325684, 28.90999984741211)"></path></g></g></g> <g data-gra="path-slogan" fill-rule="" class="tp-slogan iconsvg-slogansvg" fill="#1b9fda" transform="matrix(0.01,0,0,0.01,87.49657748162747,38.74208572864532)" opacity="1"><rect width="0"></rect> <rect x="177.9199981689453" width="0"></rect> <g transform="translate(0,0)"><g transform="scale(1)"><path d="M2.57-6.67L2.57 0L3.53 0L3.53-6.67L5.78-6.67L5.78-7.47L0.32-7.47L0.32-6.67ZM9.72-3.04L7.47-3.04L7.83-4.18C7.96-4.60 8.09-5.01 8.21-5.43C8.33-5.84 8.45-6.26 8.57-6.69L8.61-6.69C8.73-6.26 8.85-5.84 8.98-5.43C9.10-5.01 9.23-4.60 9.36-4.18ZM9.95-2.28L10.66 0L11.67 0L9.15-7.47L8.08-7.47L5.55 0L6.52 0L7.23-2.28ZM12.60-7.47L12.60 0L16.81 0L16.81-0.81L13.54-0.81L13.54-7.47ZM18.00-7.47L18.00 0L18.94 0L18.94-2.37L20.23-3.88L22.46 0L23.52 0L20.82-4.62L23.16-7.47L22.09-7.47L18.98-3.72L18.94-3.72L18.94-7.47ZM28.17-6.67L28.17 0L29.13 0L29.13-6.67L31.38-6.67L31.38-7.47L25.92-7.47L25.92-6.67ZM35.08 0.14C35.55 0.14 35.98 0.05 36.37-0.14C36.76-0.32 37.10-0.58 37.38-0.92C37.67-1.25 37.89-1.66 38.04-2.15C38.20-2.63 38.28-3.17 38.28-3.77C38.28-4.36 38.20-4.89 38.04-5.37C37.89-5.84 37.67-6.25 37.38-6.58C37.10-6.91 36.76-7.16 36.37-7.34C35.98-7.52 35.55-7.61 35.08-7.61C34.61-7.61 34.18-7.52 33.78-7.34C33.39-7.17 33.06-6.92 32.78-6.59C32.50-6.26 32.28-5.85 32.12-5.38C31.97-4.91 31.89-4.37 31.89-3.77C31.89-3.17 31.97-2.63 32.12-2.15C32.28-1.66 32.50-1.25 32.78-0.92C33.06-0.58 33.39-0.32 33.78-0.14C34.18 0.05 34.61 0.14 35.08 0.14ZM35.08-0.69C34.74-0.69 34.44-0.77 34.17-0.91C33.90-1.06 33.67-1.26 33.48-1.53C33.28-1.80 33.13-2.12 33.03-2.50C32.92-2.87 32.87-3.30 32.87-3.77C32.87-4.23 32.92-4.65 33.03-5.02C33.13-5.39 33.28-5.71 33.48-5.97C33.67-6.22 33.90-6.42 34.17-6.56C34.44-6.70 34.74-6.77 35.08-6.77C35.41-6.77 35.71-6.70 35.98-6.56C36.25-6.42 36.48-6.22 36.68-5.97C36.87-5.71 37.02-5.39 37.13-5.02C37.23-4.65 37.29-4.23 37.29-3.77C37.29-3.30 37.23-2.87 37.13-2.50C37.02-2.12 36.87-1.80 36.68-1.53C36.48-1.26 36.25-1.06 35.98-0.91C35.71-0.77 35.41-0.69 35.08-0.69ZM43.46-6.67L43.46 0L44.42 0L44.42-6.67L46.67-6.67L46.67-7.47L41.21-7.47L41.21-6.67ZM47.88-7.47L47.88 0L48.83 0L48.83-3.52L52.30-3.52L52.30 0L53.26 0L53.26-7.47L52.30-7.47L52.30-4.34L48.83-4.34L48.83-7.47ZM55.17-7.47L55.17 0L59.59 0L59.59-0.81L56.12-0.81L56.12-3.52L58.96-3.52L58.96-4.33L56.12-4.33L56.12-6.67L59.48-6.67L59.48-7.47ZM63.21-7.47L63.21 0L64.15 0L64.15-3.35L67.00-3.35L67.00-4.14L64.15-4.14L64.15-6.67L67.51-6.67L67.51-7.47ZM68.67-7.47L68.67-3.09C68.67-2.49 68.73-1.98 68.87-1.57C69.01-1.16 69.20-0.83 69.43-0.57C69.67-0.32 69.96-0.14 70.29-0.03C70.62 0.08 70.97 0.14 71.35 0.14C71.73 0.14 72.09 0.08 72.41-0.03C72.74-0.14 73.02-0.32 73.26-0.57C73.50-0.83 73.69-1.16 73.82-1.57C73.96-1.98 74.03-2.49 74.03-3.09L74.03-7.47L73.12-7.47L73.12-3.06C73.12-2.61 73.07-2.24 72.98-1.94C72.89-1.63 72.76-1.39 72.61-1.21C72.45-1.02 72.26-0.89 72.05-0.81C71.83-0.73 71.60-0.69 71.35-0.69C71.11-0.69 70.88-0.73 70.67-0.81C70.46-0.89 70.27-1.02 70.12-1.21C69.96-1.39 69.84-1.63 69.75-1.94C69.66-2.24 69.61-2.61 69.61-3.06L69.61-7.47ZM77.46-6.67L77.46 0L78.42 0L78.42-6.67L80.67-6.67L80.67-7.47L75.20-7.47L75.20-6.67ZM81.85-7.47L81.85-3.09C81.85-2.49 81.91-1.98 82.05-1.57C82.19-1.16 82.38-0.83 82.61-0.57C82.85-0.32 83.14-0.14 83.47-0.03C83.80 0.08 84.15 0.14 84.53 0.14C84.91 0.14 85.27 0.08 85.59-0.03C85.92-0.14 86.20-0.32 86.44-0.57C86.68-0.83 86.87-1.16 87.00-1.57C87.14-1.98 87.21-2.49 87.21-3.09L87.21-7.47L86.30-7.47L86.30-3.06C86.30-2.61 86.25-2.24 86.16-1.94C86.07-1.63 85.94-1.39 85.79-1.21C85.63-1.02 85.44-0.89 85.23-0.81C85.01-0.73 84.78-0.69 84.53-0.69C84.29-0.69 84.06-0.73 83.85-0.81C83.64-0.89 83.45-1.02 83.30-1.21C83.14-1.39 83.02-1.63 82.93-1.94C82.84-2.24 82.79-2.61 82.79-3.06L82.79-7.47ZM90.04-3.93L90.04-6.71L91.29-6.71C91.87-6.71 92.32-6.61 92.63-6.41C92.94-6.21 93.10-5.87 93.10-5.37C93.10-4.89 92.94-4.53 92.63-4.29C92.32-4.05 91.87-3.93 91.29-3.93ZM93.19 0L94.26 0L92.37-3.26C92.88-3.39 93.28-3.62 93.59-3.97C93.89-4.32 94.04-4.79 94.04-5.37C94.04-5.76 93.98-6.09 93.85-6.35C93.72-6.62 93.54-6.84 93.31-7.00C93.08-7.17 92.80-7.29 92.48-7.36C92.16-7.43 91.80-7.47 91.42-7.47L89.09-7.47L89.09 0L90.04 0L90.04-3.15L91.39-3.15ZM95.57-7.47L95.57 0L99.99 0L99.99-0.81L96.52-0.81L96.52-3.52L99.35-3.52L99.35-4.33L96.52-4.33L96.52-6.67L99.88-6.67L99.88-7.47ZM106.36 0.14C106.83 0.14 107.26 0.05 107.65-0.14C108.04-0.32 108.38-0.58 108.67-0.92C108.95-1.25 109.17-1.66 109.33-2.15C109.48-2.63 109.56-3.17 109.56-3.77C109.56-4.36 109.48-4.89 109.33-5.37C109.17-5.84 108.95-6.25 108.67-6.58C108.38-6.91 108.04-7.16 107.65-7.34C107.26-7.52 106.83-7.61 106.36-7.61C105.89-7.61 105.46-7.52 105.07-7.34C104.68-7.17 104.34-6.92 104.06-6.59C103.78-6.26 103.56-5.85 103.41-5.38C103.25-4.91 103.17-4.37 103.17-3.77C103.17-3.17 103.25-2.63 103.41-2.15C103.56-1.66 103.78-1.25 104.06-0.92C104.34-0.58 104.68-0.32 105.07-0.14C105.46 0.05 105.89 0.14 106.36 0.14ZM106.36-0.69C106.03-0.69 105.73-0.77 105.46-0.91C105.19-1.06 104.96-1.26 104.76-1.53C104.57-1.80 104.42-2.12 104.31-2.50C104.21-2.87 104.15-3.30 104.15-3.77C104.15-4.23 104.21-4.65 104.31-5.02C104.42-5.39 104.57-5.71 104.76-5.97C104.96-6.22 105.19-6.42 105.46-6.56C105.73-6.70 106.03-6.77 106.36-6.77C106.70-6.77 107.00-6.70 107.27-6.56C107.54-6.42 107.77-6.22 107.96-5.97C108.15-5.71 108.30-5.39 108.41-5.02C108.52-4.65 108.57-4.23 108.57-3.77C108.57-3.30 108.52-2.87 108.41-2.50C108.30-2.12 108.15-1.80 107.96-1.53C107.77-1.26 107.54-1.06 107.27-0.91C107.00-0.77 106.70-0.69 106.36-0.69ZM111.03-7.47L111.03 0L111.98 0L111.98-3.35L114.82-3.35L114.82-4.14L111.98-4.14L111.98-6.67L115.34-6.67L115.34-7.47ZM118.26-3.73C118.26-3.13 118.34-2.58 118.50-2.10C118.67-1.62 118.89-1.21 119.19-0.88C119.48-0.55 119.82-0.30 120.22-0.13C120.62 0.05 121.06 0.14 121.53 0.14C122.00 0.14 122.43 0.04 122.80-0.15C123.17-0.34 123.51-0.60 123.80-0.95L123.27-1.53C123.03-1.26 122.77-1.06 122.50-0.91C122.23-0.77 121.91-0.69 121.55-0.69C121.19-0.69 120.87-0.77 120.59-0.91C120.30-1.06 120.06-1.26 119.86-1.53C119.67-1.79 119.51-2.11 119.40-2.49C119.29-2.86 119.24-3.29 119.24-3.76C119.24-4.22 119.29-4.64 119.41-5.01C119.52-5.38 119.68-5.70 119.89-5.96C120.09-6.22 120.34-6.42 120.63-6.56C120.92-6.70 121.24-6.77 121.59-6.77C121.91-6.77 122.19-6.71 122.43-6.59C122.67-6.46 122.89-6.29 123.09-6.08L123.62-6.68C123.40-6.93 123.12-7.14 122.78-7.33C122.44-7.51 122.04-7.61 121.58-7.61C121.10-7.61 120.66-7.52 120.26-7.34C119.85-7.16 119.50-6.90 119.20-6.57C118.91-6.24 118.68-5.83 118.51-5.35C118.34-4.87 118.26-4.33 118.26-3.73ZM127.48 0.14C127.95 0.14 128.39 0.05 128.78-0.14C129.17-0.32 129.51-0.58 129.79-0.92C130.07-1.25 130.29-1.66 130.45-2.15C130.61-2.63 130.68-3.17 130.68-3.77C130.68-4.36 130.61-4.89 130.45-5.37C130.29-5.84 130.07-6.25 129.79-6.58C129.51-6.91 129.17-7.16 128.78-7.34C128.39-7.52 127.95-7.61 127.48-7.61C127.01-7.61 126.58-7.52 126.19-7.34C125.80-7.17 125.47-6.92 125.18-6.59C124.90-6.26 124.69-5.85 124.53-5.38C124.37-4.91 124.30-4.37 124.30-3.77C124.30-3.17 124.37-2.63 124.53-2.15C124.69-1.66 124.90-1.25 125.18-0.92C125.47-0.58 125.80-0.32 126.19-0.14C126.58 0.05 127.01 0.14 127.48 0.14ZM127.48-0.69C127.15-0.69 126.85-0.77 126.58-0.91C126.31-1.06 126.08-1.26 125.88-1.53C125.69-1.80 125.54-2.12 125.43-2.50C125.33-2.87 125.28-3.30 125.28-3.77C125.28-4.23 125.33-4.65 125.43-5.02C125.54-5.39 125.69-5.71 125.88-5.97C126.08-6.22 126.31-6.42 126.58-6.56C126.85-6.70 127.15-6.77 127.48-6.77C127.82-6.77 128.12-6.70 128.39-6.56C128.66-6.42 128.89-6.22 129.08-5.97C129.28-5.71 129.43-5.39 129.53-5.02C129.64-4.65 129.69-4.23 129.69-3.77C129.69-3.30 129.64-2.87 129.53-2.50C129.43-2.12 129.28-1.80 129.08-1.53C128.89-1.26 128.66-1.06 128.39-0.91C128.12-0.77 127.82-0.69 127.48-0.69ZM132.16-7.47L132.16 0L133.03 0L133.03-4.11C133.03-4.44 133.02-4.81 132.99-5.21C132.96-5.62 132.93-5.99 132.91-6.32L132.95-6.32L133.54-4.66L134.99-0.75L135.53-0.75L136.96-4.66L137.56-6.32L137.61-6.32C137.58-5.99 137.55-5.62 137.52-5.21C137.50-4.81 137.48-4.44 137.48-4.11L137.48 0L138.38 0L138.38-7.47L137.27-7.47L135.83-3.46L135.31-1.94L135.26-1.94L134.72-3.46L133.27-7.47ZM140.30-7.47L140.30 0L141.25 0L141.25-2.96L142.59-2.96C143.00-2.96 143.37-3.01 143.71-3.10C144.05-3.20 144.34-3.34 144.58-3.53C144.82-3.72 145.01-3.96 145.14-4.25C145.28-4.54 145.34-4.88 145.34-5.27C145.34-5.68 145.28-6.03 145.14-6.31C145.01-6.59 144.83-6.81 144.59-6.99C144.35-7.16 144.06-7.28 143.72-7.36C143.37-7.43 143.00-7.47 142.59-7.47ZM142.47-3.73L141.25-3.73L141.25-6.71L142.47-6.71C143.12-6.71 143.60-6.60 143.92-6.39C144.24-6.18 144.40-5.81 144.40-5.27C144.40-4.74 144.24-4.35 143.93-4.10C143.61-3.86 143.13-3.73 142.47-3.73ZM146.69-7.47L146.69-3.09C146.69-2.49 146.76-1.98 146.90-1.57C147.03-1.16 147.22-0.83 147.46-0.57C147.70-0.32 147.98-0.14 148.31-0.03C148.64 0.08 149.00 0.14 149.38 0.14C149.76 0.14 150.11 0.08 150.44-0.03C150.76-0.14 151.05-0.32 151.29-0.57C151.52-0.83 151.71-1.16 151.85-1.57C151.99-1.98 152.05-2.49 152.05-3.09L152.05-7.47L151.14-7.47L151.14-3.06C151.14-2.61 151.10-2.24 151.01-1.94C150.92-1.63 150.79-1.39 150.63-1.21C150.47-1.02 150.28-0.89 150.07-0.81C149.86-0.73 149.63-0.69 149.38-0.69C149.14-0.69 148.91-0.73 148.69-0.81C148.48-0.89 148.30-1.02 148.14-1.21C147.99-1.39 147.86-1.63 147.77-1.94C147.68-2.24 147.64-2.61 147.64-3.06L147.64-7.47ZM155.48-6.67L155.48 0L156.44 0L156.44-6.67L158.69-6.67L158.69-7.47L153.23-7.47L153.23-6.67ZM159.91-7.47L159.91 0L160.85 0L160.85-7.47ZM162.77-7.47L162.77 0L163.67 0L163.67-3.91C163.67-4.30 163.65-4.69 163.63-5.08C163.60-5.47 163.57-5.86 163.54-6.24L163.59-6.24L164.39-4.70L167.10 0L168.08 0L168.08-7.47L167.18-7.47L167.18-3.61C167.18-3.21 167.20-2.81 167.22-2.41C167.25-2.00 167.28-1.61 167.30-1.23L167.25-1.23L166.44-2.78L163.75-7.47ZM169.57-3.73C169.57-3.13 169.65-2.58 169.82-2.10C169.98-1.62 170.22-1.21 170.51-0.88C170.81-0.55 171.16-0.30 171.57-0.13C171.98 0.05 172.43 0.14 172.93 0.14C173.43 0.14 173.88 0.06 174.28-0.11C174.67-0.27 174.99-0.48 175.24-0.73L175.24-3.87L172.79-3.87L172.79-3.09L174.37-3.09L174.37-1.14C174.22-1.00 174.02-0.89 173.79-0.81C173.55-0.73 173.29-0.69 173.03-0.69C172.63-0.69 172.27-0.77 171.96-0.91C171.66-1.06 171.40-1.26 171.19-1.53C170.98-1.79 170.82-2.11 170.71-2.49C170.60-2.86 170.55-3.29 170.55-3.76C170.55-4.22 170.60-4.64 170.72-5.01C170.84-5.38 171.01-5.70 171.22-5.96C171.43-6.22 171.69-6.42 171.99-6.56C172.30-6.70 172.64-6.77 173.02-6.77C173.40-6.77 173.71-6.71 173.96-6.58C174.20-6.44 174.42-6.28 174.61-6.08L175.15-6.68C174.93-6.91 174.64-7.12 174.30-7.32C173.95-7.51 173.52-7.61 173.01-7.61C172.50-7.61 172.05-7.52 171.63-7.34C171.21-7.16 170.85-6.90 170.54-6.57C170.23-6.24 169.99-5.83 169.82-5.35C169.65-4.87 169.57-4.33 169.57-3.73Z" transform="translate(-0.31880574356379277, 7.605794167879057)"></path></g></g></g></g></g><defs v-gra="od"></defs></svg>